<?xml version="1.0" encoding="UTF-8"?>
<!DOCTYPE svg PUBLIC "-//W3C//DTD SVG 1.1//EN" "http://www.w3.org/Graphics/SVG/1.1/DTD/svg11.dtd">
<svg version="1.1" xmlns="http://www.w3.org/2000/svg" xmlns:xlink="http://www.w3.org/1999/xlink" width="22" height="22" viewBox="0 0 32 32">
    <path d="M 15.5 2.09375 L 14.09375 3.5 L 16.59375 6.03125 C 16.394531 6.019531 16.203125 6 16 6 C 10.5 6 6 10.5 6 16 C 6 17.5 6.304688 18.894531 6.90625 20.09375 L 8.40625 18.59375 C 8.207031 17.792969 8 16.898438 8 16 C 8 11.601563 11.601563 8 16 8 C 16.175781 8 16.359375 8.019531 16.53125 8.03125 L 14.09375 10.5 L 15.5 11.90625 L 19.71875 7.71875 L 20.40625 7 L 19.71875 6.28125 Z M 25.09375 11.90625 L 23.59375 13.40625 C 23.894531 14.207031 24 15.101563 24 16 C 24 20.398438 20.398438 24 16 24 C 15.824219 24 15.640625 23.980469 15.46875 23.96875 L 17.90625 21.5 L 16.5 20.09375 L 12.28125 24.28125 L 11.59375 25 L 12.28125 25.71875 L 16.5 29.90625 L 17.90625 28.5 L 15.40625 25.96875 C 15.601563 25.980469 15.804688 26 16 26 C 21.5 26 26 21.5 26 16 C 26 14.5 25.695313 13.105469 25.09375 11.90625 Z "></path>
</svg>